<?xml version="1.0" encoding="utf-8"?>
<!-- Generator: Adobe Illustrator 24.2.3, SVG Export Plug-In . SVG Version: 6.00 Build 0)  -->
<svg version="1.1" id="图层_1" xmlns="http://www.w3.org/2000/svg" xmlns:xlink="http://www.w3.org/1999/xlink" x="0px" y="0px"
	 viewBox="0 0 128 128" style="enable-background:new 0 0 128 128;" xml:space="preserve">
<path d="M57.6,35.8c0,5,3.6,9.1,8,9.1c4.4,0,8-4.1,8-9.1c0-5-3.6-9.1-8-9.1S57.6,30.8,57.6,35.8z M0,0h128v18.3H0V0z M57.9,93.9
	c0,5,3.6,9.1,8,9.1c4.4,0,8-4.1,8-9.1c0-3.3-1.5-6.3-4-7.9c-2.5-1.6-5.5-1.6-8,0C59.4,87.6,57.9,90.6,57.9,93.9L57.9,93.9z
	 M94.8,66.5c0,5,3.6,9.1,8,9.1c4.4,0,8-4.1,8-9.1c0-5-3.6-9.1-8-9.1C98.4,57.4,94.8,61.5,94.8,66.5z M57.4,65.9c0,5,3.6,9.1,8,9.1
	c4.4,0,8-4.1,8-9.1c0-3.3-1.5-6.3-4-7.9c-2.5-1.6-5.5-1.6-8,0C58.9,59.7,57.4,62.7,57.4,65.9L57.4,65.9z M0,109.8h128v18.3H0V109.8z
	 M17.4,65.9c0,5,3.6,9.1,8,9.1c4.4,0,8-4.1,8-9.1c0-5-3.6-9.1-8-9.1S17.4,60.9,17.4,65.9z"/>
</svg>
