<?xml version="1.0" encoding="utf-8"?>
<!-- Generator: Adobe Illustrator 24.2.3, SVG Export Plug-In . SVG Version: 6.00 Build 0)  -->
<svg version="1.1" id="图层_1" xmlns="http://www.w3.org/2000/svg" xmlns:xlink="http://www.w3.org/1999/xlink" x="0px" y="0px"
	 viewBox="0 0 128 128" style="enable-background:new 0 0 128 128;" xml:space="preserve">
<path d="M76.8,28.8C76.8,13.5,71,1.1,64,1.1c-7,0-12.8,12.4-12.8,27.7c0,10.4,2.6,19.2,6.4,23.9v31.6c0,7.7,2.9,14,6.4,14
	c3.5,0,6.4-6.3,6.4-14V52.7C74.2,48,76.8,39.2,76.8,28.8z M128,103.9v18.5c0,3.1-8.6,5.6-19.2,5.6H19.2C8.7,128,0,125.5,0,122.4
	v-18.5c0-3.1,8.6-5.6,19.2-5.6h89.6C119.4,98.4,128,100.9,128,103.9z"/>
</svg>
