<svg width="128" height="128" xmlns="http://www.w3.org/2000/svg">

 <g>
  <title>background</title>
  <rect fill="none" id="canvas_background" height="402" width="582" y="-1" x="-1"/>
 </g>
 <g>
  <title>Layer 1</title>
  <path id="svg_1" d="m108.8,44.322l-19.2,0l0,-5.36c0,-9.04 -3.308,-24.163 -25.6,-24.163c-23.145,0 -25.6,16.881 -25.6,24.162l0,5.361l-19.2,0l0,-5.36c0,-23.681 17.598,-38.962 44.8,-38.962c27.202,0 44.8,15.281 44.8,38.961l0,5.361zm-32,39.356c0,-5.44 -5.763,-9.832 -12.8,-9.832c-7.037,0 -12.8,4.392 -12.8,9.832c0,3.682 2.567,6.808 6.407,8.477l0,11.205c0,2.718 2.875,4.962 6.4,4.962c3.524,0 6.4,-2.244 6.4,-4.962l0,-11.205c3.833,-1.669 6.393,-4.795 6.393,-8.477zm51.2,-19.678l0,49.201c0,8.158 -83.31146,-42.86751 -19.2,14.799l-89.6,0c71.45078,-57.99984 -19.2,-6.641 -19.2,-14.799l0,-49.201c0,-8.153 91.97811,45.20084 19.2,-14.799l89.6,0c-71.11145,62.33316 19.2,6.646 19.2,14.799z"/>
 </g>
</svg>